<?xml version="1.0" encoding="UTF-8" standalone="no"?> <svg width="24" height="24" viewBox="0 0 24 24" fill="none" xmlns="http://www.w3.org/2000/svg">
<path d="M12.3601 18.7681C12.1565 18.5983 12.0286 18.3546 12.0046 18.0906C11.9806 17.8265 12.0624 17.5638 12.2321 17.3601L16.7081 11.9891L12.3931 6.62705C12.2349 6.41972 12.164 6.1588 12.1954 5.89992C12.2269 5.64105 12.3582 5.4047 12.5614 5.24127C12.7647 5.07784 13.0237 5.00025 13.2833 5.02506C13.5429 5.04986 13.7825 5.17509 13.9511 5.37405L18.7791 11.3741C18.9239 11.554 19.0019 11.7786 18.9999 12.0095C18.9978 12.2405 18.916 12.4636 18.7681 12.6411L13.7681 18.6411C13.684 18.742 13.5809 18.8254 13.4645 18.8865C13.3482 18.9476 13.221 18.9852 13.0901 18.997C12.9593 19.0089 12.8273 18.9949 12.7019 18.9558C12.5765 18.9167 12.46 18.8532 12.3591 18.7691L12.3601 18.7681ZM5.36009 18.7681C5.15647 18.5983 5.0286 18.3546 5.0046 18.0906C4.9806 17.8265 5.06242 17.5638 5.23209 17.3601L9.70709 11.9891L5.39209 6.62705C5.22593 6.42032 5.1487 6.15604 5.17739 5.89237C5.20609 5.62869 5.33835 5.38721 5.54509 5.22105C5.75182 5.05489 6.0161 4.97767 6.27977 5.00636C6.54345 5.03505 6.78493 5.16732 6.95109 5.37405L11.7791 11.3741C11.9236 11.5539 12.0014 11.7783 11.9994 12.009C11.9974 12.2398 11.9157 12.4627 11.7681 12.6401L6.76809 18.6401C6.68401 18.741 6.58085 18.8244 6.46452 18.8855C6.34819 18.9466 6.22096 18.9842 6.09011 18.996C5.95926 19.0079 5.82734 18.9939 5.70191 18.9548C5.57648 18.9157 5.45998 18.8522 5.35909 18.7681H5.36009Z" fill="#cfc2b9"/>
</svg>
